# xmcd CD database file
#
# Track frame offsets:
#	150
#	15000
#	34180
#	51993
#	66200
#	85153
#	103879
#	118919
#	135095
#	151236
#	177433
#	189162
#	214302
#	226269
#	239873
#	256507
#	272387
#	287522
#	309924
#	331070
#
# Disc length: 4642 seconds
#
# Revision: 0
# Processed by: cddbd v1.4PL0 Copyright (c) Steve Scherf et al.
# Submitted via: CDex 1.40Release
#
DISCID=06122014
DTITLE=BubbaDoVoodoo - Who Do Voodoo?
DYEAR=1900
DGENRE=Blues
TTITLE0=Born Under a Bad Sign
TTITLE1=1040 Blues
TTITLE2=Still Raining
TTITLE3=Get Out My Life Woman
TTITLE4=Boom Chick-a Boom
TTITLE5=Steamroller Blues
TTITLE6=Pride and Joy
TTITLE7=Cherry Red Wine
TTITLE8=Smoking Gun
TTITLE9=Ain't That Lovin' You
TTITLE10=Kansas City
TTITLE11=Stormy Monday
TTITLE12=Maybelline
TTITLE13=Johnny B. Goode
TTITLE14=Dust My Broom
TTITLE15=Mary Had a Little Lamb
TTITLE16=Caladonia
TTITLE17=Red House
TTITLE18=Messin with the Kid
TTITLE19=Tee Ni Nee Ni Nu
EXTD=ID3G: 0
EXTT0=
EXTT1=
EXTT2=
EXTT3=
EXTT4=
EXTT5=
EXTT6=
EXTT7=
EXTT8=
EXTT9=
EXTT10=
EXTT11=
EXTT12=
EXTT13=
EXTT14=
EXTT15=
EXTT16=
EXTT17=
EXTT18=
EXTT19=
PLAYORDER=
